<svg width="32" height="32" viewBox="0 0 32 32" fill="none" xmlns="http://www.w3.org/2000/svg">
<path fill-rule="evenodd" clip-rule="evenodd" d="M12.0002 29.3333C12.0002 29.6869 11.8597 30.0261 11.6096 30.2761C11.3596 30.5262 11.0205 30.6667 10.6668 30.6667C10.3132 30.6667 9.97407 30.5262 9.72402 30.2761C9.47397 30.0261 9.3335 29.6869 9.3335 29.3333C9.3335 28.9797 9.47397 28.6406 9.72402 28.3905C9.97407 28.1405 10.3132 28 10.6668 28C11.0205 28 11.3596 28.1405 11.6096 28.3905C11.8597 28.6406 12.0002 28.9797 12.0002 29.3333ZM17.3335 29.3333C17.3335 29.6869 17.193 30.0261 16.943 30.2761C16.6929 30.5262 16.3538 30.6667 16.0002 30.6667C15.6465 30.6667 15.3074 30.5262 15.0574 30.2761C14.8073 30.0261 14.6668 29.6869 14.6668 29.3333C14.6668 28.9797 14.8073 28.6406 15.0574 28.3905C15.3074 28.1405 15.6465 28 16.0002 28C16.3538 28 16.6929 28.1405 16.943 28.3905C17.193 28.6406 17.3335 28.9797 17.3335 29.3333ZM21.3335 30.6667C21.6871 30.6667 22.0263 30.5262 22.2763 30.2761C22.5264 30.0261 22.6668 29.6869 22.6668 29.3333C22.6668 28.9797 22.5264 28.6406 22.2763 28.3905C22.0263 28.1405 21.6871 28 21.3335 28C20.9799 28 20.6407 28.1405 20.3907 28.3905C20.1406 28.6406 20.0002 28.9797 20.0002 29.3333C20.0002 29.6869 20.1406 30.0261 20.3907 30.2761C20.6407 30.5262 20.9799 30.6667 21.3335 30.6667Z" fill="white"/>
<path fill-rule="evenodd" clip-rule="evenodd" d="M12.0002 2.66666C12.0002 3.02028 11.8597 3.35942 11.6096 3.60947C11.3596 3.85952 11.0205 3.99999 10.6668 3.99999C10.3132 3.99999 9.97407 3.85952 9.72402 3.60947C9.47397 3.35942 9.3335 3.02028 9.3335 2.66666C9.3335 2.31304 9.47397 1.9739 9.72402 1.72385C9.97407 1.4738 10.3132 1.33333 10.6668 1.33333C11.0205 1.33333 11.3596 1.4738 11.6096 1.72385C11.8597 1.9739 12.0002 2.31304 12.0002 2.66666ZM17.3335 2.66666C17.3335 3.02028 17.193 3.35942 16.943 3.60947C16.6929 3.85952 16.3538 3.99999 16.0002 3.99999C15.6465 3.99999 15.3074 3.85952 15.0574 3.60947C14.8073 3.35942 14.6668 3.02028 14.6668 2.66666C14.6668 2.31304 14.8073 1.9739 15.0574 1.72385C15.3074 1.4738 15.6465 1.33333 16.0002 1.33333C16.3538 1.33333 16.6929 1.4738 16.943 1.72385C17.193 1.9739 17.3335 2.31304 17.3335 2.66666ZM21.3335 3.99999C21.6871 3.99999 22.0263 3.85952 22.2763 3.60947C22.5264 3.35942 22.6668 3.02028 22.6668 2.66666C22.6668 2.31304 22.5264 1.9739 22.2763 1.72385C22.0263 1.4738 21.6871 1.33333 21.3335 1.33333C20.9799 1.33333 20.6407 1.4738 20.3907 1.72385C20.1406 1.9739 20.0002 2.31304 20.0002 2.66666C20.0002 3.02028 20.1406 3.35942 20.3907 3.60947C20.6407 3.85952 20.9799 3.99999 21.3335 3.99999ZM12.0002 29.3333C12.0002 29.687 11.8597 30.0261 11.6096 30.2761C11.3596 30.5262 11.0205 30.6667 10.6668 30.6667C10.3132 30.6667 9.97407 30.5262 9.72402 30.2761C9.47397 30.0261 9.3335 29.687 9.3335 29.3333C9.3335 28.9797 9.47397 28.6406 9.72402 28.3905C9.97407 28.1405 10.3132 28 10.6668 28C11.0205 28 11.3596 28.1405 11.6096 28.3905C11.8597 28.6406 12.0002 28.9797 12.0002 29.3333ZM17.3335 29.3333C17.3335 29.687 17.193 30.0261 16.943 30.2761C16.6929 30.5262 16.3538 30.6667 16.0002 30.6667C15.6465 30.6667 15.3074 30.5262 15.0574 30.2761C14.8073 30.0261 14.6668 29.687 14.6668 29.3333C14.6668 28.9797 14.8073 28.6406 15.0574 28.3905C15.3074 28.1405 15.6465 28 16.0002 28C16.3538 28 16.6929 28.1405 16.943 28.3905C17.193 28.6406 17.3335 28.9797 17.3335 29.3333ZM21.3335 30.6667C21.6871 30.6667 22.0263 30.5262 22.2763 30.2761C22.5264 30.0261 22.6668 29.687 22.6668 29.3333C22.6668 28.9797 22.5264 28.6406 22.2763 28.3905C22.0263 28.1405 21.6871 28 21.3335 28C20.9799 28 20.6407 28.1405 20.3907 28.3905C20.1406 28.6406 20.0002 28.9797 20.0002 29.3333C20.0002 29.687 20.1406 30.0261 20.3907 30.2761C20.6407 30.5262 20.9799 30.6667 21.3335 30.6667ZM30.6668 21.3333C30.6668 20.9797 30.5264 20.6406 30.2763 20.3905C30.0263 20.1405 29.6871 20 29.3335 20C28.9799 20 28.6407 20.1405 28.3907 20.3905C28.1406 20.6406 28.0002 20.9797 28.0002 21.3333C28.0002 21.687 28.1406 22.0261 28.3907 22.2761C28.6407 22.5262 28.9799 22.6667 29.3335 22.6667C29.6871 22.6667 30.0263 22.5262 30.2763 22.2761C30.5264 22.0261 30.6668 21.687 30.6668 21.3333ZM30.6668 16C30.6668 15.6464 30.5264 15.3072 30.2763 15.0572C30.0263 14.8071 29.6871 14.6667 29.3335 14.6667C28.9799 14.6667 28.6407 14.8071 28.3907 15.0572C28.1406 15.3072 28.0002 15.6464 28.0002 16C28.0002 16.3536 28.1406 16.6928 28.3907 16.9428C28.6407 17.1929 28.9799 17.3333 29.3335 17.3333C29.6871 17.3333 30.0263 17.1929 30.2763 16.9428C30.5264 16.6928 30.6668 16.3536 30.6668 16ZM29.3335 9.33333C29.6871 9.33333 30.0263 9.4738 30.2763 9.72385C30.5264 9.9739 30.6668 10.313 30.6668 10.6667C30.6668 11.0203 30.5264 11.3594 30.2763 11.6095C30.0263 11.8595 29.6871 12 29.3335 12C28.9799 12 28.6407 11.8595 28.3907 11.6095C28.1406 11.3594 28.0002 11.0203 28.0002 10.6667C28.0002 10.313 28.1406 9.9739 28.3907 9.72385C28.6407 9.4738 28.9799 9.33333 29.3335 9.33333ZM2.66683 20C3.02045 20 3.35959 20.1405 3.60964 20.3905C3.85969 20.6406 4.00016 20.9797 4.00016 21.3333C4.00016 21.687 3.85969 22.0261 3.60964 22.2761C3.35959 22.5262 3.02045 22.6667 2.66683 22.6667C2.31321 22.6667 1.97407 22.5262 1.72402 22.2761C1.47397 22.0261 1.3335 21.687 1.3335 21.3333C1.3335 20.9797 1.47397 20.6406 1.72402 20.3905C1.97407 20.1405 2.31321 20 2.66683 20ZM2.66683 14.6667C3.02045 14.6667 3.35959 14.8071 3.60964 15.0572C3.85969 15.3072 4.00016 15.6464 4.00016 16C4.00016 16.3536 3.85969 16.6928 3.60964 16.9428C3.35959 17.1929 3.02045 17.3333 2.66683 17.3333C2.31321 17.3333 1.97407 17.1929 1.72402 16.9428C1.47397 16.6928 1.3335 16.3536 1.3335 16C1.3335 15.6464 1.47397 15.3072 1.72402 15.0572C1.97407 14.8071 2.31321 14.6667 2.66683 14.6667ZM4.00016 10.6667C4.00016 10.313 3.85969 9.9739 3.60964 9.72385C3.35959 9.4738 3.02045 9.33333 2.66683 9.33333C2.31321 9.33333 1.97407 9.4738 1.72402 9.72385C1.47397 9.9739 1.3335 10.313 1.3335 10.6667C1.3335 11.0203 1.47397 11.3594 1.72402 11.6095C1.97407 11.8595 2.31321 12 2.66683 12C3.02045 12 3.35959 11.8595 3.60964 11.6095C3.85969 11.3594 4.00016 11.0203 4.00016 10.6667ZM22.6668 8H9.3335C8.97987 8 8.64074 8.14047 8.39069 8.39052C8.14064 8.64057 8.00016 8.97971 8.00016 9.33333V22.6667C8.00016 23.0203 8.14064 23.3594 8.39069 23.6095C8.64074 23.8595 8.97987 24 9.3335 24H22.6668C23.0205 24 23.3596 23.8595 23.6096 23.6095C23.8597 23.3594 24.0002 23.0203 24.0002 22.6667V9.33333C24.0002 8.97971 23.8597 8.64057 23.6096 8.39052C23.3596 8.14047 23.0205 8 22.6668 8ZM9.3335 5.33333C8.27263 5.33333 7.25521 5.75476 6.50507 6.5049C5.75492 7.25505 5.3335 8.27246 5.3335 9.33333V22.6667C5.3335 23.7275 5.75492 24.7449 6.50507 25.4951C7.25521 26.2452 8.27263 26.6667 9.3335 26.6667H22.6668C23.7277 26.6667 24.7451 26.2452 25.4953 25.4951C26.2454 24.7449 26.6668 23.7275 26.6668 22.6667V9.33333C26.6668 8.27246 26.2454 7.25505 25.4953 6.5049C24.7451 5.75476 23.7277 5.33333 22.6668 5.33333H9.3335ZM18.6668 13.3333H13.3335V18.6667H18.6668V13.3333ZM12.0002 10.6667C11.2638 10.6667 10.6668 11.2636 10.6668 12V20C10.6668 20.7364 11.2638 21.3333 12.0002 21.3333H20.0002C20.7365 21.3333 21.3335 20.7364 21.3335 20V12C21.3335 11.2636 20.7365 10.6667 20.0002 10.6667H12.0002Z" fill="white"/>
</svg>
