<svg width="32" height="32" viewBox="0 0 32 32" fill="none" xmlns="http://www.w3.org/2000/svg">
<path d="M27.9202 14.6667C27.6181 11.9628 26.4057 9.44205 24.4819 7.51825C22.5581 5.59446 20.0373 4.38201 17.3335 4.07999V2.66666C17.3335 1.93028 16.7365 1.33333 16.0002 1.33333C15.2638 1.33333 14.6668 1.93028 14.6668 2.66666V4.07999C11.963 4.38201 9.44221 5.59446 7.51842 7.51825C5.59463 9.44205 4.38218 11.9628 4.08016 14.6667H2.66683C1.93045 14.6667 1.3335 15.2636 1.3335 16C1.3335 16.7364 1.93045 17.3333 2.66683 17.3333H4.08016C4.38218 20.0372 5.59463 22.5579 7.51842 24.4817C9.44221 26.4055 11.963 27.618 14.6668 27.92V29.3333C14.6668 30.0697 15.2638 30.6667 16.0002 30.6667C16.7365 30.6667 17.3335 30.0697 17.3335 29.3333V27.92C20.0373 27.618 22.5581 26.4055 24.4819 24.4817C26.4057 22.5579 27.6181 20.0372 27.9202 17.3333H29.3335C30.0699 17.3333 30.6668 16.7364 30.6668 16C30.6668 15.2636 30.0699 14.6667 29.3335 14.6667H27.9202ZM16.0002 25.3333C10.8402 25.3333 6.66683 21.16 6.66683 16C6.66683 10.84 10.8402 6.66666 16.0002 6.66666C21.1602 6.66666 25.3335 10.84 25.3335 16C25.3335 21.16 21.1602 25.3333 16.0002 25.3333Z" fill="white"/>
</svg>
